<svg width="16" height="16" viewBox="0 0 16 16" fill="none" xmlns="http://www.w3.org/2000/svg">
<path d="M8 16C12.4183 16 16 12.4183 16 8C16 3.58172 12.4183 0 8 0C3.58172 0 0 3.58172 0 8C0 12.4183 3.58172 16 8 16Z" fill="#705E25"/>
<path d="M8.07344 2L4.89014 3.8375L6.06044 4.5161L8.07344 3.3575L10.0864 4.5161L11.257 3.8375L8.07344 2ZM10.0867 5.4758L11.2567 6.1547V7.5125L9.24374 8.6711V10.9883L8.07374 11.6672L6.90314 10.9883V8.6711L4.89014 7.5125V6.1547L6.06044 5.4758L8.07344 6.6347L10.0864 5.4758H10.0867Z" fill="#F0B90B"/>
<path d="M11.2572 8.47192V9.83001L10.0869 10.5086V9.15112L11.2569 8.47222L11.2572 8.47192Z" fill="#F0B90B"/>
<path d="M10.0748 11.468L12.0878 10.3094V7.9922L13.2584 7.3133V10.9883L10.0751 12.8258V11.468H10.0748ZM12.0881 5.675L10.9175 4.9961L12.0881 4.3172L13.2581 4.9961V6.3536L12.0881 7.0325V5.675ZM6.90322 13.3172V11.96L8.07352 12.6389L9.24412 11.96V13.3175L8.07352 13.9964L6.90352 13.3175L6.90322 13.3172ZM6.06052 10.5083L4.89022 9.83V8.4722L6.06052 9.1511V10.5086V10.5083ZM8.07352 5.675L6.90352 4.9961L8.07352 4.3172L9.24412 4.9961L8.07352 5.675ZM5.22952 4.9961L4.05952 5.675V7.0325L2.88892 6.3536V4.9961L4.05922 4.3172L5.22952 4.9961Z" fill="#F0B90B"/>
<path d="M2.88892 7.31329L4.05923 7.99219V10.3094L6.07225 11.468V12.8258L2.88892 10.988V7.31299V7.31329Z" fill="#F0B90B"/>
</svg>
