<svg width="58" height="58" viewBox="0 0 58 58" fill="none" xmlns="http://www.w3.org/2000/svg">
<g filter="url(#filter0_d)">
<rect x="11" y="7" width="36" height="36" rx="12" fill="#1A1A26"/>
</g>
<mask id="mask0" mask-type="alpha" maskUnits="userSpaceOnUse" x="11" y="7" width="36" height="36">
<rect x="11" y="7" width="36" height="36" rx="12" fill="#FAF2F2"/>
</mask>
<g mask="url(#mask0)">
<circle cx="19" cy="8" r="7" fill="#9094A1" fill-opacity="0.13"/>
<circle cx="33.5" cy="48.5" r="11.5" fill="#9094A1" fill-opacity="0.33"/>
</g>
<path d="M24.2556 17.9883C23.0813 17.9883 22.1205 18.9272 22.0471 20.1135L22.0426 20.2571L22.0417 21.742C22.0415 22.1081 21.7521 22.4046 21.3954 22.4044C21.0685 22.4042 20.7984 22.1547 20.7558 21.8312L20.75 21.7412L20.7509 20.2559C20.753 18.331 22.2278 16.7606 24.0808 16.6671L24.2556 16.6627L27.5154 16.6627L27.5152 15.6628C27.5152 15.2967 27.8043 15 28.161 15C28.488 15 28.7582 15.2493 28.801 15.5729L28.8069 15.6628V34.3372C28.8069 34.7033 28.5177 35 28.161 35C27.834 35 27.5638 34.7507 27.521 34.4271L27.5152 34.3372L27.5154 33.3373L24.2592 33.3373C22.3866 33.3373 20.846 31.8149 20.7543 29.9152L20.75 29.736V28.2835C20.75 27.9174 21.0392 27.6207 21.3959 27.6207C21.7228 27.6207 21.993 27.87 22.0358 28.1935L22.0417 28.2835V29.736C22.0417 30.938 22.9659 31.9325 24.1197 32.0073L24.2592 32.0118L27.5154 32.0109V17.9882L24.2556 17.9883ZM37 29.736C37 31.6585 35.5167 33.2389 33.6654 33.3329L33.4908 33.3373H31.8092C31.4525 33.3373 31.1633 33.0406 31.1633 32.6746C31.1633 32.339 31.4063 32.0617 31.7215 32.0178L31.8092 32.0118H33.4908C34.6623 32.0118 35.6311 31.0638 35.7039 29.8793L35.7083 29.736V28.2835C35.7083 27.9174 35.9975 27.6207 36.3541 27.6207C36.6811 27.6207 36.9513 27.87 36.9941 28.1935L37 28.2835V29.736ZM37 21.7412C37.0002 22.1073 36.7112 22.4042 36.3546 22.4044C36.0276 22.4046 35.7572 22.1555 35.7142 21.832L35.7083 21.742L35.7074 20.2574C35.7061 19.052 34.7904 18.0668 33.6342 17.9928L33.4944 17.9883H31.8092C31.4525 17.9883 31.1633 17.6916 31.1633 17.3255C31.1633 16.99 31.4063 16.7127 31.7215 16.6688L31.8092 16.6627H33.4944C35.3699 16.6627 36.9015 18.1748 36.9946 20.0768L36.9991 20.2562L37 21.7412Z" fill="#798DFF"/>
<defs>
<filter id="filter0_d" x="0" y="0" width="58" height="58" filterUnits="userSpaceOnUse" color-interpolation-filters="sRGB">
<feFlood flood-opacity="0" result="BackgroundImageFix"/>
<feColorMatrix in="SourceAlpha" type="matrix" values="0 0 0 0 0 0 0 0 0 0 0 0 0 0 0 0 0 0 127 0"/>
<feOffset dy="4"/>
<feGaussianBlur stdDeviation="5.5"/>
<feColorMatrix type="matrix" values="0 0 0 0 0.121569 0 0 0 0 0.129412 0 0 0 0 0.152941 0 0 0 0.4 0"/>
<feBlend mode="normal" in2="BackgroundImageFix" result="effect1_dropShadow"/>
<feBlend mode="normal" in="SourceGraphic" in2="effect1_dropShadow" result="shape"/>
</filter>
</defs>
</svg>
