<svg width="58" height="58" viewBox="0 0 58 58" fill="none" xmlns="http://www.w3.org/2000/svg">
<g filter="url(#filter0_d)">
<rect x="11" y="7" width="36" height="36" rx="12" fill="#1A1A26"/>
</g>
<mask id="mask0" mask-type="alpha" maskUnits="userSpaceOnUse" x="11" y="7" width="36" height="36">
<rect x="11" y="7" width="36" height="36" rx="12" fill="url(#paint0_linear)"/>
</mask>
<g mask="url(#mask0)">
<circle cx="44.5" cy="42.5" r="8.5" fill="#9094A1" fill-opacity="0.11"/>
<circle cx="7.5" cy="36.5" r="11.5" fill="#9094A1" fill-opacity="0.33"/>
</g>
<path d="M29.3325 20.0009C26.3464 19.9505 23.2581 22.0373 21.3166 24.1744V24.1744C20.8945 24.643 20.8945 25.3548 21.3166 25.8234C23.2159 27.9153 26.2953 30.0502 29.3325 29.9991C32.3696 30.0502 35.4498 27.9153 37.3506 25.8234V25.8234C37.7727 25.3548 37.7727 24.643 37.3506 24.1744C35.4068 22.0373 32.3185 19.9505 29.3325 20.0009V20.0009Z" stroke="#798DFF" stroke-width="1.25" stroke-linecap="round" stroke-linejoin="round"/>
<path d="M32.1104 25.0004V24.9996C32.1104 26.5338 30.8667 27.7775 29.3325 27.7775C27.7983 27.7775 26.5546 26.5338 26.5546 24.9996C26.5546 23.4657 27.7978 22.2221 29.3317 22.2217V22.2217C30.8655 22.2209 32.1095 23.4636 32.1104 24.9974C32.1104 24.9984 32.1104 24.9994 32.1104 25.0004V25.0004Z" stroke="#798DFF" stroke-width="1.25" stroke-linecap="round" stroke-linejoin="round"/>
<defs>
<filter id="filter0_d" x="0" y="0" width="58" height="58" filterUnits="userSpaceOnUse" color-interpolation-filters="sRGB">
<feFlood flood-opacity="0" result="BackgroundImageFix"/>
<feColorMatrix in="SourceAlpha" type="matrix" values="0 0 0 0 0 0 0 0 0 0 0 0 0 0 0 0 0 0 127 0"/>
<feOffset dy="4"/>
<feGaussianBlur stdDeviation="5.5"/>
<feColorMatrix type="matrix" values="0 0 0 0 0.121569 0 0 0 0 0.129412 0 0 0 0 0.152941 0 0 0 0.4 0"/>
<feBlend mode="normal" in2="BackgroundImageFix" result="effect1_dropShadow"/>
<feBlend mode="normal" in="SourceGraphic" in2="effect1_dropShadow" result="shape"/>
</filter>
<linearGradient id="paint0_linear" x1="29" y1="7" x2="29" y2="43" gradientUnits="userSpaceOnUse">
<stop stop-color="#F7D849"/>
<stop offset="1" stop-color="#F3B73F"/>
</linearGradient>
</defs>
</svg>
