<svg width="16" height="16" viewBox="0 0 16 16" fill="none" xmlns="http://www.w3.org/2000/svg">
<path d="M8 16C12.4183 16 16 12.4183 16 8C16 3.58172 12.4183 0 8 0C3.58172 0 0 3.58172 0 8C0 12.4183 3.58172 16 8 16Z" fill="#3B2364"/>
<path d="M10.5461 6.66605C10.3616 6.55535 10.1218 6.55535 9.91882 6.66605L8.4797 7.51476L7.50184 8.06826L6.06273 8.91697C5.87823 9.02767 5.63838 9.02767 5.43542 8.91697L4.29151 8.25277C4.10701 8.14207 3.97786 7.93911 3.97786 7.71771V6.40775C3.97786 6.18635 4.08856 5.98339 4.29151 5.87269L5.41697 5.22694C5.60148 5.11624 5.84133 5.11624 6.04428 5.22694L7.16974 5.87269C7.35424 5.98339 7.48339 6.18635 7.48339 6.40775V7.25646L8.46125 6.6845V5.83579C8.46125 5.61439 8.35055 5.41144 8.1476 5.30074L6.06273 4.08303C5.87823 3.97232 5.63838 3.97232 5.43542 4.08303L3.31365 5.30074C3.1107 5.41144 3 5.61439 3 5.83579V8.28967C3 8.51107 3.1107 8.71402 3.31365 8.82472L5.43542 10.0424C5.61993 10.1531 5.85978 10.1531 6.06273 10.0424L7.50184 9.21218L8.4797 8.64022L9.91882 7.80996C10.1033 7.69926 10.3432 7.69926 10.5461 7.80996L11.6716 8.45572C11.8561 8.56642 11.9852 8.76937 11.9852 8.99077V10.3007C11.9852 10.5221 11.8745 10.7251 11.6716 10.8358L10.5461 11.5C10.3616 11.6107 10.1218 11.6107 9.91882 11.5L8.79336 10.8542C8.60886 10.7435 8.4797 10.5406 8.4797 10.3192V9.47048L7.50184 10.0424V10.8911C7.50184 11.1125 7.61255 11.3155 7.8155 11.4262L9.93727 12.6439C10.1218 12.7546 10.3616 12.7546 10.5646 12.6439L12.6863 11.4262C12.8708 11.3155 13 11.1125 13 10.8911V8.43727C13 8.21587 12.8893 8.01291 12.6863 7.90221L10.5461 6.66605Z" fill="#C29DFF"/>
</svg>
