<svg width="14" height="14" viewBox="0 0 14 14" fill="none" xmlns="http://www.w3.org/2000/svg">
<path d="M1.73635 6.51509C1.74481 6.74178 1.7871 6.9651 1.83447 7.18672C1.84631 7.23747 1.85985 7.24762 1.90383 7.21379C2.00027 7.13935 2.08655 7.05138 2.19313 6.98878C2.21851 7.03954 2.25572 7.08183 2.29125 7.12413C2.58224 7.46756 2.96458 7.65027 3.39429 7.7467C3.54655 7.78053 3.69881 7.80929 3.86799 7.81606C3.82569 7.76531 3.79186 7.72809 3.7631 7.68749C3.73434 7.64688 3.70727 7.6029 3.68527 7.55722C3.62099 7.41849 3.64636 7.29838 3.75464 7.18841C3.83415 7.10721 3.93058 7.05815 4.03209 7.01754C4.27909 6.92111 4.53793 6.88389 4.79846 6.87036C5.22479 6.85006 5.64604 6.88558 6.06222 6.9854C6.3752 7.05984 6.67972 7.15627 6.95886 7.32037C6.96224 7.32545 6.96732 7.32714 6.9724 7.32714H6.9707C6.97916 7.35759 7.00116 7.3762 7.02484 7.39143C7.05868 7.43203 7.09251 7.47263 7.12466 7.51662C7.49854 8.01062 7.58482 8.54183 7.33105 9.11535C7.14157 9.54506 6.82352 9.86988 6.4361 10.1236C5.58683 10.6836 4.65128 10.868 3.65313 10.7158C2.79033 10.5838 2.05779 10.1862 1.43014 9.58397C0.895536 9.07136 0.496277 8.46401 0.179915 7.79745C0.122395 7.67564 0.0665659 7.55384 0.00904552 7.43203C0.00735375 6.54046 0.179915 5.68273 0.526729 4.86222C0.755119 4.32254 1.05118 3.82009 1.4166 3.35992C1.60947 3.118 1.81248 2.88623 2.03748 2.67306C2.61607 2.12662 3.26741 1.69014 4.00164 1.37716C4.55146 1.1437 5.1199 0.98467 5.71033 0.906848C6.46655 0.807034 7.21939 0.837486 7.96547 0.998204C8.25984 1.06249 8.54744 1.14539 8.84012 1.25028C8.3918 1.80518 7.86227 2.26196 7.26 2.64769C7.24308 2.40407 7.17033 2.18076 7.07052 1.9659C7.19571 1.85763 7.31921 1.75104 7.4444 1.64277C7.4647 1.62585 7.49685 1.6157 7.485 1.57848C7.47485 1.54465 7.44778 1.54465 7.41902 1.53957C7.24308 1.50743 7.06544 1.48713 6.88612 1.49051C6.78968 1.49897 6.69494 1.46175 6.59851 1.47359C6.55114 1.47359 6.50377 1.4719 6.4564 1.47359C6.32952 1.48036 6.20095 1.48036 6.07575 1.50743C5.98778 1.49559 5.9015 1.5142 5.81691 1.52604C5.67142 1.54465 5.52254 1.55142 5.38213 1.60555C5.26201 1.60724 5.15035 1.64785 5.037 1.6783C4.86613 1.72228 4.69357 1.7612 4.53624 1.84409C4.51932 1.84748 4.5024 1.84917 4.48718 1.85424C4.18604 1.96421 3.89675 2.10124 3.6193 2.26196C3.23188 2.48528 2.86815 2.74412 2.54502 3.05202C2.35046 3.23812 2.15929 3.42759 1.98842 3.63907C1.7668 3.91483 1.5621 4.20074 1.39461 4.51371C1.24743 4.76748 1.12223 5.0314 1.02242 5.30716C0.937831 5.52201 0.858317 5.73856 0.817714 5.96526C0.744968 6.17335 0.729742 6.39328 0.684064 6.60644C0.682372 6.62843 0.684064 6.65212 0.680681 6.67411C0.65192 6.87882 0.638386 7.08521 0.633311 7.29161C0.633311 7.31699 0.628236 7.34575 0.656996 7.35928C0.684064 7.37112 0.706057 7.35082 0.724667 7.3356C0.812639 7.26116 0.897228 7.18503 0.9852 7.11059C1.18821 6.93634 1.39123 6.7587 1.59762 6.58783C1.64161 6.56415 1.67206 6.50832 1.73635 6.51509Z" fill="#C7C8C9"/>
<path d="M6.96056 7.32366C6.68141 7.15956 6.37689 7.06313 6.06392 6.98869C5.64774 6.88887 5.22649 6.85335 4.80016 6.87365C4.53963 6.88549 4.28078 6.92271 4.03378 7.02083C3.93059 7.06143 3.83416 7.1105 3.75633 7.1917C3.64806 7.30167 3.62268 7.42347 3.68697 7.56051C3.70727 7.60619 3.73603 7.65017 3.76479 7.69078C3.79355 7.73138 3.82739 7.76691 3.86968 7.81935C3.69881 7.81258 3.54655 7.78382 3.39599 7.74999C2.96627 7.65356 2.58393 7.47084 2.29295 7.12741C2.25742 7.08512 2.21851 7.04282 2.19482 6.99207C2.21174 6.95654 2.24219 6.93624 2.27772 6.9244C2.29295 6.92271 2.30987 6.92102 2.31156 6.90072L2.30817 6.90241C2.32509 6.9041 2.3437 6.90748 2.33863 6.88041C2.34032 6.88211 2.34201 6.8838 2.34201 6.88549C2.34032 6.8838 2.34032 6.88211 2.33863 6.88041C2.36908 6.89902 2.39107 6.87534 2.41645 6.8635C2.54671 6.80259 2.6736 6.73661 2.80556 6.67909C3.28264 6.4727 3.78509 6.35935 4.30278 6.31874C4.51763 6.30183 4.73249 6.29337 4.95073 6.31029C5.15712 6.3272 5.36521 6.34074 5.56992 6.3695C6.08253 6.44563 6.57822 6.58605 7.06545 6.75691C7.0959 6.76707 7.12128 6.79752 7.16526 6.77552C7.10774 6.65202 7.02992 6.54206 6.95379 6.43209C6.90642 6.36104 6.83367 6.30859 6.80322 6.2257C6.90304 6.24769 7.00454 6.26968 7.11789 6.29506C7.0553 6.16649 6.96732 6.06667 6.88104 5.96855C6.8083 5.88734 6.73047 5.81121 6.65435 5.73339C6.67803 5.71816 6.70341 5.72155 6.72878 5.72493C6.85567 5.74185 6.98424 5.75538 7.11112 5.77738C7.66603 5.87719 8.19048 6.05821 8.68109 6.33566C9.31213 6.69432 9.83488 7.17309 10.2494 7.76691C10.6402 8.32688 10.9024 8.94269 11.0242 9.61602C11.1037 10.0626 11.1139 10.5093 11.0479 10.9559C10.9616 11.5446 10.7417 12.0792 10.3898 12.5597C10.3763 12.58 10.3509 12.5952 10.3712 12.6257H10.3678C10.3509 12.6206 10.3475 12.6274 10.3526 12.6426L10.3543 12.6443C10.3103 12.6409 10.2984 12.6697 10.295 12.7052L10.2967 12.7018C10.29 12.7086 10.2832 12.7153 10.2781 12.7221L10.2815 12.7187C10.2747 12.7255 10.2697 12.7323 10.2629 12.739L10.2646 12.7373C10.2578 12.7441 10.2528 12.7492 10.246 12.756C10.2409 12.761 10.2358 12.7661 10.2291 12.7712C9.82643 13.1569 9.35611 13.4327 8.83674 13.6289C8.20909 13.8641 7.55775 13.9673 6.8895 13.9943C6.07407 14.0265 5.27893 13.9216 4.50579 13.6627C3.73265 13.4039 3.03056 13.0131 2.40122 12.492C2.35385 12.4531 2.3031 12.4159 2.26419 12.3685C2.29971 12.3618 2.32002 12.3922 2.3437 12.4091C2.45197 12.4887 2.56194 12.5665 2.67698 12.6375C3.30801 13.0233 3.98472 13.2601 4.73249 13.2669C4.74602 13.3159 4.78663 13.2973 4.81708 13.2973C5.12329 13.3041 5.42612 13.2821 5.72894 13.233C6.17726 13.1603 6.60698 13.0249 7.01639 12.8321C7.5273 12.5902 7.98577 12.2721 8.37996 11.861C8.68278 11.5463 8.92809 11.1944 9.09727 10.7918C9.22584 10.4839 9.29352 10.1625 9.29859 9.82749C9.30028 9.62617 9.27321 9.42992 9.22246 9.23875C9.18017 9.08141 9.1328 8.92239 9.03806 8.77013C9.02622 8.79889 9.01437 8.81581 9.01099 8.83272C8.99069 8.9613 8.94163 9.07803 8.87734 9.19307C8.81644 9.30135 8.73015 9.38932 8.67094 9.49759C8.62865 9.53819 8.58635 9.5788 8.54406 9.6194C8.38842 9.76489 8.22431 9.89685 8.02976 9.9899C8.02468 9.96114 8.03483 9.93576 8.0416 9.907C8.08051 9.73952 8.13973 9.57372 8.13127 9.39778C8.13634 9.3927 8.14142 9.38763 8.14649 9.38255C8.16848 9.23875 8.1651 9.09495 8.14988 8.94777C8.12788 8.72783 8.07375 8.51805 7.97901 8.32012C7.80814 7.96146 7.5476 7.68232 7.2194 7.46408C7.14327 7.41332 7.07729 7.34565 6.97748 7.33889H6.97917C6.97409 7.31858 6.97071 7.31351 6.96056 7.32366Z" fill="#747474"/>
<path d="M8.02465 9.97804C8.2192 9.88668 8.38331 9.75303 8.53895 9.60754C8.58125 9.56694 8.62354 9.52634 8.66583 9.48573C8.73858 9.72597 8.7758 9.96789 8.75381 10.2217C8.71997 10.6125 8.58463 10.9627 8.37992 11.2909C8.17522 11.6208 7.90961 11.8982 7.61524 12.1503C7.23628 12.4751 6.81334 12.7272 6.35318 12.9183C5.83211 13.1332 5.29412 13.2652 4.72569 13.2584C3.97792 13.2516 3.30121 13.0148 2.67018 12.6291C2.55514 12.558 2.44517 12.4802 2.3369 12.4007C2.31322 12.3837 2.29291 12.3533 2.25739 12.3601H2.25908C2.23539 12.3076 2.19141 12.2772 2.14065 12.2552C1.56376 11.7476 1.11036 11.1454 0.753397 10.467C0.35583 9.71074 0.120673 8.90376 0.0360844 8.05111C0.0208584 7.89208 0.0174749 7.73136 0.00901599 7.57064C0.0157831 7.54188 0.0157831 7.51312 0.00732422 7.48436C0.00901599 7.46744 0.0107078 7.45222 0.0123995 7.4353C0.0699199 7.55711 0.125749 7.67892 0.183269 7.80072C0.499631 8.46559 0.89889 9.07463 1.43349 9.58724C2.06114 10.1878 2.79368 10.5871 3.65649 10.719C4.65463 10.8713 5.59019 10.6869 6.43946 10.1269C6.82687 9.87146 7.14324 9.54833 7.33441 9.11862C7.58817 8.5468 7.50189 8.01389 7.12801 7.51989C7.09587 7.4776 7.06034 7.43699 7.02819 7.3947C7.06711 7.37609 7.08402 7.40992 7.10263 7.42853C7.16184 7.48944 7.22782 7.54019 7.28196 7.60448C7.71675 8.11032 7.8707 8.68721 7.7269 9.34193C7.69645 9.47727 7.64231 9.60585 7.57633 9.75642C7.64231 9.72258 7.68291 9.70059 7.72521 9.68029C7.87239 9.60247 7.9942 9.48742 8.12616 9.3893C8.13462 9.56525 8.0754 9.73104 8.03649 9.89853C8.02973 9.9239 8.01958 9.95097 8.02465 9.97804C8.02296 9.98142 8.02296 9.98312 8.02127 9.98481C8.02127 9.98312 8.02296 9.98142 8.02465 9.97804Z" fill="#444444"/>
<path d="M9.44594 1.51587C9.76569 1.66305 10.0634 1.84577 10.351 2.0454C10.7503 2.32115 11.1107 2.64259 11.4372 2.99956C12.0039 3.62213 12.4387 4.3276 12.7348 5.11766C12.9682 5.73685 13.1036 6.37803 13.1408 7.03783C13.1797 7.701 13.1222 8.35741 12.9598 9.00367C12.953 9.03074 12.9581 9.06627 12.9158 9.08488C12.9022 8.94953 12.8938 8.81927 12.8769 8.69069C12.7601 7.79067 12.4201 6.98369 11.8533 6.27314C11.5894 5.94325 11.2917 5.64719 10.9482 5.40188C10.9415 5.3968 10.9381 5.38834 10.933 5.38158C11.5471 5.44417 12.1376 5.58121 12.684 5.88065C12.6637 5.85866 12.6417 5.83667 12.6214 5.81467C12.6113 5.79775 12.6129 5.77238 12.5842 5.77238L12.5808 5.77915C12.6028 5.74869 12.5757 5.73347 12.5605 5.71655C12.3 5.42556 12.0191 5.15826 11.7129 4.91126C11.087 4.40542 10.3933 4.02308 9.63373 3.76086C9.17018 3.60183 8.69649 3.48679 8.20587 3.45126C8.18388 3.44957 8.16189 3.4428 8.13989 3.43773C8.47486 3.15858 8.77262 2.84899 9.00608 2.47849C9.19725 2.17735 9.33429 1.85253 9.44594 1.51587Z" fill="#CAC9C9"/>
<path d="M10.368 12.6241C10.346 12.5953 10.3714 12.5784 10.3866 12.5581C10.7385 12.0776 10.9584 11.5413 11.0447 10.9543C11.1107 10.5077 11.1005 10.0593 11.021 9.6144C10.9009 8.93938 10.6387 8.32527 10.2462 7.76529C9.83169 7.17148 9.30893 6.6927 8.6779 6.33405C8.18728 6.0549 7.66114 5.87388 7.10793 5.77576C6.98104 5.75377 6.85247 5.74023 6.72559 5.72332C6.70021 5.71993 6.67483 5.71824 6.65115 5.73177C6.641 5.72839 6.62746 5.7267 6.6207 5.71993C6.42107 5.5609 6.20621 5.42387 5.95752 5.30545C6.2299 5.28853 6.48197 5.28684 6.73235 5.30206C7.42936 5.34605 8.09762 5.50338 8.7185 5.82651C10.1125 6.55059 10.977 7.68578 11.2832 9.22868C11.471 10.1744 11.3509 11.0846 10.8789 11.9355C10.7402 12.1876 10.5744 12.4211 10.368 12.6241Z" fill="#464646"/>
<path d="M6.08095 1.5141C6.20614 1.48703 6.33472 1.48703 6.4616 1.48026C6.50897 1.47688 6.55634 1.48026 6.60371 1.48026C6.60202 1.50733 6.60709 1.53609 6.58172 1.55809C6.50389 1.62237 6.42946 1.69004 6.35333 1.75433C6.03696 2.02163 5.71891 2.28555 5.40424 2.55454C5.11833 2.79816 4.8375 3.04516 4.55159 3.28708C4.27413 3.52224 3.9933 3.75401 3.71754 3.98917C3.47054 4.19895 3.22692 4.4155 2.97823 4.62189C2.93256 4.6608 2.89703 4.72847 2.8209 4.72509C2.82767 4.69802 2.83443 4.67095 2.8412 4.64388C2.84797 4.6202 2.86827 4.59482 2.83951 4.57791C2.81921 4.56606 2.79721 4.58129 2.7786 4.59652C2.41826 4.87227 2.1002 5.18525 1.90565 5.60481C1.88704 5.64542 1.86843 5.68433 1.84982 5.72493C1.83628 5.72831 1.81937 5.72662 1.81091 5.73339C1.6688 5.85012 1.52669 5.96685 1.38627 6.08697C1.21033 6.23754 1.03777 6.39149 0.86013 6.54037C0.814452 6.57928 0.770466 6.63849 0.694336 6.61819C0.740014 6.40502 0.75524 6.1834 0.827986 5.977C0.921034 5.97193 0.96502 5.89411 1.02592 5.84335C1.19679 5.70294 1.36428 5.55914 1.53346 5.41533C1.70263 5.27153 1.86843 5.12604 2.03761 4.98393C2.24231 4.80968 2.44871 4.63881 2.65341 4.46456C2.82428 4.31906 2.99177 4.17019 3.16264 4.02639C3.40964 3.81661 3.66002 3.60852 3.90702 3.39705C4.11003 3.22448 4.31135 3.05023 4.51267 2.87767C4.75629 2.67127 5.0016 2.46657 5.24521 2.26017C5.46345 2.07577 5.68507 1.89475 5.89655 1.70358C5.95914 1.64437 6.0505 1.60715 6.08095 1.5141Z" fill="#D2D2D2"/>
<path d="M9.44577 1.51583C9.33412 1.85249 9.19708 2.17732 9.0076 2.47845C8.77414 2.84895 8.47469 3.15855 8.14141 3.43769C7.98239 3.53243 7.83859 3.64916 7.68125 3.74559C7.40211 3.91477 7.11112 4.05688 6.80999 4.18207C6.77953 4.19391 6.74908 4.21083 6.70679 4.19391C6.94533 3.97229 7.0959 3.69822 7.18556 3.39032C7.19571 3.35648 7.2194 3.34464 7.24985 3.33111C7.9993 3.03505 8.5762 2.52413 9.04651 1.88295C9.05328 1.87449 9.05328 1.86265 9.05666 1.85249C9.06005 1.84742 9.06343 1.84404 9.06682 1.83896C9.06005 1.83896 9.05328 1.83896 9.04651 1.83896C8.90271 1.88125 8.75891 1.92355 8.5965 1.97092C9.10911 1.39064 9.45423 0.739306 9.65217 0C9.64879 0.20978 9.63864 0.40941 9.61664 0.607348C9.58619 0.896641 9.53036 1.17917 9.45423 1.45831C9.45085 1.47692 9.44916 1.49722 9.44577 1.51583Z" fill="#464646"/>
<path d="M6.80151 6.22237C6.83196 6.30527 6.90471 6.35771 6.95208 6.42877C7.02821 6.54042 7.10603 6.6487 7.16355 6.7722C7.11956 6.79419 7.09419 6.76374 7.06374 6.75359C6.5765 6.58272 6.08081 6.4423 5.56821 6.36617C5.3635 6.33572 5.1571 6.32218 4.94902 6.30696C4.73247 6.29004 4.51592 6.2985 4.30107 6.31542C3.78338 6.35433 3.28262 6.46768 2.80384 6.67577C2.67189 6.73329 2.545 6.79927 2.41474 6.86017C2.39105 6.87201 2.36906 6.8957 2.33691 6.87709C2.69895 6.61655 3.09652 6.42538 3.51777 6.28158C4.14373 6.07011 4.78661 5.99906 5.44471 6.02612C5.87273 6.04304 6.29398 6.10225 6.71185 6.19699C6.7423 6.20207 6.77106 6.21391 6.80151 6.22237Z" fill="#464646"/>
<path d="M2.81918 4.72349C2.89531 4.72688 2.92914 4.65921 2.97651 4.6203C3.2269 4.4139 3.46882 4.19735 3.71582 3.98757C3.99327 3.75241 4.2741 3.52064 4.54986 3.28548C4.83577 3.04356 5.11661 2.79487 5.40252 2.55294C5.71719 2.28564 6.03524 2.02004 6.35161 1.75273C6.42943 1.68845 6.50387 1.62078 6.58 1.55649C6.60537 1.5345 6.6003 1.50743 6.60199 1.47867C6.69842 1.46682 6.79316 1.50404 6.88959 1.49559C6.85576 1.59032 6.76778 1.63093 6.70011 1.69183C6.53263 1.84071 6.36176 1.9862 6.19089 2.13C5.98449 2.30595 5.7764 2.4802 5.56831 2.65445C5.39744 2.79825 5.22319 2.93867 5.0574 3.08924C4.9948 3.14676 4.90175 3.18229 4.87807 3.27872C4.61584 3.38192 4.42129 3.55955 4.29441 3.81163C4.25211 3.80655 4.22504 3.837 4.19967 3.859C4.08632 3.95035 3.97635 4.04509 3.86639 4.13983C3.58217 4.38345 3.29964 4.63045 3.01204 4.87068C2.95114 4.92143 2.90207 4.99249 2.81579 5.0094C2.78196 4.91466 2.7938 4.81993 2.81918 4.72349Z" fill="#D0D0D0"/>
<path d="M4.88135 3.28032C4.90503 3.18389 4.99639 3.14837 5.06068 3.09085C5.22647 2.94028 5.40072 2.79986 5.57159 2.65606C5.77968 2.48181 5.98777 2.30755 6.19417 2.13161C6.36504 1.98612 6.5359 1.84062 6.70339 1.69344C6.77106 1.63254 6.85903 1.59193 6.89287 1.49719C7.0722 1.49381 7.24983 1.51411 7.42578 1.54625C7.45454 1.55133 7.4833 1.55133 7.49176 1.58517C7.50191 1.62238 7.47146 1.63254 7.45116 1.64945C7.32596 1.75603 7.20246 1.86431 7.07727 1.97258C6.99607 1.85585 6.99607 1.85585 6.92332 1.98104C6.77783 2.2365 6.55959 2.41921 6.32274 2.58331C5.90656 2.87092 5.44809 3.07224 4.97609 3.24818C4.94564 3.26002 4.91349 3.27017 4.88135 3.28032Z" fill="#CECECE"/>
<path d="M12.6214 5.81463C12.6417 5.83663 12.6637 5.85862 12.684 5.88061C12.1375 5.58117 11.5454 5.44413 10.933 5.38154C10.7723 5.29018 10.6251 5.17852 10.4644 5.08717C9.99066 4.81818 9.4882 4.63208 8.9536 4.53396C8.93669 4.53057 8.92146 4.5255 8.90454 4.52042C8.92823 4.48828 8.96714 4.51704 8.9942 4.50012C9.72336 4.55426 10.4102 4.75896 11.0734 5.1007C11.0345 4.99412 10.9719 4.91799 10.9279 4.8334C10.9093 4.79787 10.8721 4.77081 10.8805 4.72513L10.8788 4.72682C10.9651 4.74543 11.0362 4.79618 11.1123 4.83509C11.6114 5.09224 12.0766 5.40184 12.5165 5.74865C12.5351 5.76388 12.5486 5.78926 12.5791 5.78249L12.5825 5.77572C12.5672 5.81125 12.6061 5.80279 12.6214 5.81463Z" fill="#494949"/>
<path d="M2.81738 5.01104C2.90366 4.99412 2.95272 4.92307 3.01363 4.87231C3.30123 4.63208 3.58376 4.38508 3.86798 4.14147C3.97794 4.04673 4.0896 3.95199 4.20126 3.86063C4.22832 3.83864 4.25539 3.80988 4.29599 3.81326C4.25201 3.95875 4.22832 4.10425 4.28077 4.25143C4.36028 4.47475 4.5413 4.56949 4.76123 4.61178C4.58529 4.6693 4.40934 4.65577 4.27739 4.56103C4.21479 4.51704 4.18095 4.53396 4.13866 4.57794C3.98132 4.74374 3.81046 4.89261 3.6159 5.01104C3.48225 5.09224 3.34353 5.15822 3.18957 5.18698C3.06946 5.20898 2.95272 5.20728 2.86137 5.10747C2.83768 5.0804 2.81738 5.04995 2.81738 5.01104Z" fill="#CECECE"/>
<path d="M0.690974 6.61652C0.768796 6.63683 0.81109 6.57761 0.856768 6.5387C1.0344 6.39152 1.20697 6.23588 1.38291 6.08531C1.52333 5.96519 1.66544 5.84846 1.80755 5.73173C1.8177 5.72327 1.83461 5.72496 1.84646 5.72327C1.74833 5.97872 1.73142 6.24603 1.7348 6.51671C1.67051 6.50994 1.64175 6.56577 1.60284 6.59791C1.39644 6.76878 1.19343 6.94473 0.990418 7.12067C0.904138 7.19511 0.817857 7.27124 0.729885 7.34568C0.711275 7.3626 0.689282 7.38121 0.662214 7.36936C0.633454 7.35752 0.638529 7.32707 0.638529 7.30169C0.643604 7.0953 0.657139 6.8889 0.685899 6.6842C0.690974 6.66051 0.690974 6.63852 0.690974 6.61652Z" fill="#CECECE"/>
<path d="M5.98108 3.54258C6.13841 3.46306 6.30421 3.40216 6.44462 3.29389C6.47338 3.27189 6.50214 3.2499 6.54444 3.21606C6.43278 3.6407 6.23823 3.98413 5.84404 4.18207C5.56659 4.32249 5.26715 4.35801 4.96094 4.34786C5.12166 4.30049 5.28745 4.26327 5.43802 4.18376C5.70701 4.04334 5.90326 3.84202 5.98108 3.54258Z" fill="#494949"/>
<path d="M5.98106 3.5426C5.90154 3.84374 5.70699 4.04337 5.438 4.18379C5.28743 4.26161 5.12333 4.29883 4.96092 4.34789C4.922 4.221 4.96599 4.11273 5.0455 4.0163C5.12333 3.92156 5.22314 3.85389 5.33311 3.80144C5.54289 3.69825 5.76282 3.62042 5.98106 3.5426Z" fill="#CAC9C9"/>
<path d="M2.90539 5.72333C2.92569 5.78592 2.86817 5.82653 2.86479 5.88066C2.84279 5.78423 2.78866 5.74194 2.69392 5.75886C2.58564 5.77747 2.49598 5.82991 2.41816 5.90604C2.3894 5.9348 2.36571 5.96864 2.31665 5.99063C2.32003 5.95341 2.32849 5.93142 2.34541 5.91112C2.37417 5.89758 2.37925 5.86882 2.39447 5.84514C2.46553 5.73517 2.54842 5.64043 2.67023 5.5846C2.8005 5.52708 2.86817 5.56599 2.89016 5.70472C2.89016 5.71318 2.90031 5.71825 2.90539 5.72333Z" fill="#C8C7C7"/>
<path d="M2.90532 5.72324C2.90024 5.71648 2.89178 5.7114 2.89009 5.70463C2.86979 5.56591 2.80043 5.527 2.67016 5.58452C2.54835 5.63866 2.46545 5.73509 2.3944 5.84505C2.37917 5.86874 2.3741 5.8975 2.34534 5.91103C2.34196 5.90765 2.3335 5.90257 2.3335 5.90088C2.37748 5.72324 2.53313 5.49655 2.71922 5.43564C2.79028 5.41196 2.85795 5.41534 2.9087 5.48132C2.95269 5.53884 2.9493 5.65557 2.90532 5.72324Z" fill="#494949"/>
<path d="M8.99408 4.49847C8.96701 4.51539 8.9281 4.48663 8.90442 4.51877C8.82659 4.51708 8.75046 4.50354 8.67603 4.47986C8.78092 4.49508 8.88919 4.47309 8.99408 4.49847Z" fill="#767676"/>
<path d="M2.14233 12.257C2.19309 12.279 2.23707 12.3094 2.26076 12.3618C2.20831 12.3432 2.17786 12.2993 2.14233 12.257Z" fill="#747474"/>
<path d="M10.29 12.7035C10.2934 12.668 10.3053 12.6392 10.3493 12.6426C10.3357 12.668 10.3171 12.69 10.29 12.7035Z" fill="#464646"/>
<path d="M0.00741373 7.48438C0.0158726 7.51314 0.0158726 7.5419 0.00910551 7.57066C-0.00273692 7.5419 -0.00273692 7.51314 0.00741373 7.48438Z" fill="#C7C8C9"/>
<path d="M2.3388 6.87537C2.34219 6.90243 2.32527 6.90074 2.30835 6.89736C2.31681 6.89059 2.32865 6.88383 2.3388 6.87537Z" fill="#464646"/>
<path d="M2.30996 6.89563C2.30827 6.91762 2.29304 6.91931 2.27612 6.91931C2.28289 6.90578 2.29473 6.90071 2.30996 6.89563Z" fill="#464646"/>
<path d="M10.8805 4.72172C10.8771 4.72172 10.872 4.72172 10.8687 4.72341C10.8703 4.72002 10.872 4.71664 10.872 4.71326C10.8737 4.71664 10.8771 4.72172 10.8788 4.7251C10.8788 4.72341 10.8805 4.72172 10.8805 4.72172Z" fill="#494949"/>
<path d="M10.3476 12.6393C10.3425 12.6241 10.3476 12.6173 10.3628 12.6224C10.3594 12.6292 10.3527 12.6342 10.3476 12.6393Z" fill="#464646"/>
<path d="M10.2732 12.7205C10.28 12.7137 10.2867 12.707 10.2918 12.7002C10.285 12.707 10.2783 12.7137 10.2732 12.7205Z" fill="#464646"/>
<path d="M10.2561 12.7356C10.2629 12.7289 10.2679 12.7221 10.2747 12.7153C10.2679 12.7238 10.2629 12.7306 10.2561 12.7356Z" fill="#464646"/>
<path d="M10.241 12.7526C10.2477 12.7459 10.2528 12.7408 10.2596 12.734C10.2528 12.7408 10.246 12.7459 10.241 12.7526Z" fill="#464646"/>
<path d="M10.2241 12.7661C10.2292 12.761 10.2343 12.7559 10.241 12.7509C10.2343 12.7576 10.2292 12.7627 10.2241 12.7661Z" fill="#464646"/>
<path d="M6.08083 1.51413C6.05038 1.60718 5.95902 1.6444 5.89473 1.70192C5.68157 1.89309 5.46164 2.07411 5.2434 2.25851C4.99978 2.46491 4.75448 2.66961 4.51086 2.87601C4.30785 3.04857 4.10653 3.22282 3.9052 3.39539C3.6582 3.60517 3.40782 3.81325 3.16082 4.02473C2.98995 4.17022 2.82247 4.3174 2.6516 4.4629C2.44689 4.63715 2.2405 4.80971 2.03579 4.98227C1.86661 5.12607 1.69913 5.26987 1.53164 5.41368C1.36246 5.55748 1.19498 5.70128 1.02411 5.84169C0.963206 5.89245 0.91922 5.97027 0.826172 5.97534C0.866774 5.74695 0.946288 5.53041 1.03088 5.31724C1.05964 5.31724 1.08501 5.31894 1.11039 5.29694C1.26265 5.16498 1.4166 5.03472 1.57055 4.90445C1.73635 4.76234 1.90214 4.62023 2.06794 4.47812C2.27941 4.29879 2.49088 4.12116 2.70235 3.94183C2.86815 3.79972 3.03394 3.65761 3.19973 3.5155C3.37229 3.36832 3.54655 3.22282 3.71911 3.07733C3.8849 2.93522 4.0507 2.79311 4.21818 2.6527C4.38398 2.51228 4.55146 2.37186 4.71895 2.23144C4.89658 2.08088 5.07591 1.93538 5.24847 1.77805C5.30092 1.73068 5.39058 1.71038 5.39058 1.61564C5.52931 1.55981 5.67819 1.55473 5.82537 1.53612C5.90658 1.5209 5.99286 1.50229 6.08083 1.51413Z" fill="#D4D4D3"/>
<path d="M5.38729 1.6123C5.38729 1.70704 5.29763 1.72735 5.24519 1.77472C5.07262 1.93036 4.8933 2.07754 4.71566 2.22811C4.54817 2.36853 4.38069 2.50895 4.21489 2.64936C4.0491 2.78978 3.88331 2.93358 3.71582 3.074C3.54326 3.22118 3.36901 3.36668 3.19644 3.51217C3.03065 3.65428 2.86486 3.79639 2.69906 3.9385C2.48759 4.11782 2.27612 4.29546 2.06465 4.47479C1.89885 4.6169 1.73306 4.75901 1.56726 4.90112C1.41331 5.03138 1.25936 5.16165 1.1071 5.29361C1.08342 5.31391 1.05635 5.31391 1.02759 5.31391C1.12571 5.03815 1.25259 4.77423 1.39978 4.52047C1.44884 4.52216 1.48268 4.4934 1.51651 4.46295C1.64339 4.35298 1.77197 4.24471 1.89885 4.13474C2.06803 3.99263 2.23721 3.85052 2.40469 3.70672C2.57387 3.56292 2.73967 3.41912 2.90884 3.27532C3.12031 3.09599 3.33179 2.91666 3.54326 2.73903C3.71413 2.59353 3.885 2.44973 4.05587 2.30424C4.21659 2.1689 4.37561 2.03356 4.53633 1.89652C4.55156 1.88299 4.56509 1.86776 4.53971 1.84915C4.69705 1.76795 4.8713 1.72735 5.04048 1.68336C5.15721 1.65629 5.26887 1.614 5.38729 1.6123Z" fill="#D7D7D6"/>
<path d="M4.5413 1.85083C4.56668 1.86944 4.55315 1.88467 4.53792 1.8982C4.37889 2.03354 4.21817 2.17058 4.05746 2.30592C3.88659 2.45141 3.71572 2.59521 3.54485 2.7407C3.33338 2.92003 3.1219 3.09767 2.91043 3.277C2.74125 3.4208 2.57546 3.5646 2.40628 3.7084C2.2371 3.8522 2.06793 3.99262 1.90044 4.13642C1.77187 4.24469 1.64498 4.35297 1.5181 4.46462C1.48257 4.49508 1.45043 4.52384 1.40137 4.52214C1.56885 4.20917 1.77356 3.92326 1.99518 3.6475C2.16436 3.43602 2.35553 3.24655 2.55177 3.06045C2.8766 2.75085 3.24033 2.4937 3.62605 2.27039C3.9035 2.10967 4.19111 1.97264 4.49393 1.86267C4.50916 1.85421 4.52608 1.85421 4.5413 1.85083Z" fill="#D9D9D8"/>
<path d="M8.12622 9.38763C7.99257 9.48575 7.87245 9.60079 7.72527 9.67861C7.68467 9.7006 7.64237 9.72091 7.57639 9.75474C7.64237 9.60417 7.6982 9.47729 7.72696 9.34026C7.87076 8.68554 7.71681 8.11034 7.28202 7.6028C7.2262 7.53852 7.16022 7.48776 7.1027 7.42686C7.08409 7.40656 7.06548 7.37441 7.02826 7.39302C7.00288 7.3761 6.98258 7.3575 6.97412 7.32874C7.07224 7.3355 7.13991 7.40317 7.21604 7.45393C7.54425 7.67217 7.80478 7.953 7.97565 8.30997C8.07039 8.5079 8.12453 8.71768 8.14652 8.93761C8.16175 9.08311 8.16513 9.22691 8.14314 9.3724C8.13637 9.37748 8.1313 9.38255 8.12622 9.38763Z" fill="#646464"/>
<path d="M6.96069 7.32373C6.97084 7.31527 6.97423 7.32035 6.97423 7.3305C6.96915 7.3305 6.96408 7.3288 6.96069 7.32373Z" fill="#646464"/>
<path d="M4.72925 13.2601C5.29599 13.2686 5.83567 13.1349 6.35674 12.9201C6.8169 12.7306 7.23984 12.4768 7.6188 12.152C7.91317 11.8999 8.17878 11.6242 8.38348 11.2926C8.5865 10.9644 8.72353 10.6142 8.75737 10.2234C8.77936 9.96963 8.74045 9.72771 8.66939 9.48747C8.72692 9.3792 8.81489 9.29123 8.87579 9.18295C8.94008 9.0696 8.98914 8.95287 9.00944 8.82261C9.01282 8.80569 9.02297 8.78877 9.03651 8.76001C9.12956 8.91227 9.17862 9.0713 9.22091 9.22863C9.27167 9.4198 9.29873 9.61774 9.29704 9.81737C9.29366 10.1523 9.22599 10.4721 9.09572 10.7817C8.92654 11.186 8.68293 11.5362 8.37841 11.8509C7.98423 12.2603 7.52575 12.58 7.01484 12.822C6.60543 13.0165 6.17572 13.1502 5.7274 13.2229C5.42457 13.272 5.12174 13.294 4.81553 13.2872C4.78338 13.2889 4.74278 13.3075 4.72925 13.2601Z" fill="#646464"/>
<path d="M8.12622 9.38766C8.1313 9.38259 8.13637 9.37751 8.14145 9.37244C8.13637 9.37751 8.1313 9.38259 8.12622 9.38766Z" fill="#444444"/>
<path d="M8.02487 9.97815C8.02318 9.97984 8.02148 9.98323 8.02148 9.98492C8.02148 9.98323 8.02318 9.98153 8.02487 9.97815C8.02487 9.97984 8.02487 9.97815 8.02487 9.97815Z" fill="#747474"/>
<path d="M12.6213 5.81463C12.6077 5.80279 12.5688 5.81125 12.584 5.77234C12.6111 5.77234 12.6111 5.79941 12.6213 5.81463Z" fill="#FEFEFF"/>
<path d="M9.04663 1.83899C9.0534 1.83899 9.06017 1.83899 9.06693 1.83899C9.06355 1.84406 9.06016 1.84745 9.05678 1.85252C9.0534 1.84914 9.05001 1.84406 9.04663 1.83899Z" fill="#FEFEFF"/>
</svg>
