<svg width="14" height="14" viewBox="0 0 14 14" fill="none" xmlns="http://www.w3.org/2000/svg">
<path d="M1.73659 6.51502C1.74505 6.74172 1.78735 6.96504 1.83472 7.18666C1.84656 7.23741 1.86009 7.24756 1.90408 7.21373C2.00051 7.13929 2.08679 7.05132 2.19337 6.98872C2.21875 7.03948 2.25597 7.08177 2.2915 7.12406C2.58248 7.46749 2.96482 7.65021 3.39453 7.74664C3.54679 7.78047 3.69905 7.80923 3.86823 7.816C3.82594 7.76525 3.7921 7.72803 3.76334 7.68743C3.73458 7.64682 3.70751 7.60284 3.68552 7.55716C3.62123 7.41843 3.64661 7.29832 3.75488 7.18835C3.8344 7.10715 3.93083 7.05808 4.03233 7.01748C4.27933 6.92105 4.53817 6.88383 4.79871 6.8703C5.22504 6.85 5.64629 6.88552 6.06246 6.98534C6.37544 7.05978 6.67996 7.15621 6.95911 7.32031C6.96249 7.32539 6.96756 7.32708 6.97264 7.32708H6.97095C6.97941 7.35753 7.0014 7.37614 7.02508 7.39136C7.05892 7.43197 7.09276 7.47257 7.1249 7.51656C7.49878 8.01055 7.58506 8.54177 7.3313 9.11528C7.14182 9.545 6.82376 9.86982 6.43635 10.1236C5.58707 10.6836 4.65152 10.868 3.65338 10.7157C2.79057 10.5837 2.05803 10.1862 1.43038 9.58391C0.89578 9.0713 0.496521 8.46395 0.180159 7.79739C0.122639 7.67558 0.06681 7.55377 0.00928966 7.43197C0.00759789 6.5404 0.180159 5.68267 0.526973 4.86216C0.755363 4.32248 1.05142 3.82003 1.41685 3.35986C1.60971 3.11794 1.81272 2.88617 2.03773 2.673C2.61632 2.12656 3.26765 1.69008 4.00188 1.3771C4.55171 1.14364 5.12014 0.984609 5.71057 0.906787C6.4668 0.806973 7.21964 0.837425 7.96571 0.998143C8.26008 1.06243 8.54768 1.14533 8.84036 1.25022C8.39204 1.80512 7.86251 2.2619 7.26024 2.64762C7.24332 2.40401 7.17058 2.18069 7.07076 1.96584C7.19595 1.85757 7.31945 1.75098 7.44464 1.64271C7.46495 1.62579 7.49709 1.61564 7.48525 1.57842C7.4751 1.54459 7.44803 1.54459 7.41927 1.53951C7.24332 1.50737 7.06569 1.48707 6.88636 1.49045C6.78993 1.49891 6.69519 1.46169 6.59876 1.47353C6.55139 1.47353 6.50402 1.47184 6.45665 1.47353C6.32976 1.4803 6.20119 1.4803 6.076 1.50737C5.98803 1.49553 5.90175 1.51413 5.81716 1.52598C5.67166 1.54459 5.52279 1.55135 5.38237 1.60549C5.26225 1.60718 5.1506 1.64779 5.03725 1.67824C4.86638 1.72222 4.69382 1.76113 4.53648 1.84403C4.51956 1.84741 4.50265 1.84911 4.48742 1.85418C4.18629 1.96415 3.89699 2.10118 3.61954 2.2619C3.23212 2.48521 2.86839 2.74406 2.54526 3.05196C2.35071 3.23805 2.15954 3.42753 1.98867 3.63901C1.76704 3.91477 1.56234 4.20068 1.39485 4.51365C1.24767 4.76742 1.12248 5.03134 1.02266 5.3071C0.938075 5.52195 0.858561 5.7385 0.817959 5.9652C0.745212 6.17329 0.729986 6.39322 0.684308 6.60638C0.682617 6.62837 0.684308 6.65206 0.680925 6.67405C0.652165 6.87876 0.63863 7.08515 0.633555 7.29155C0.633555 7.31693 0.62848 7.34569 0.65724 7.35922C0.684308 7.37106 0.706301 7.35076 0.724911 7.33554C0.812883 7.2611 0.897472 7.18497 0.985444 7.11053C1.18846 6.93628 1.39147 6.75864 1.59787 6.58777C1.64185 6.56409 1.67231 6.50826 1.73659 6.51502Z" fill="#268ACB"/>
<path d="M6.96056 7.32371C6.68141 7.1596 6.37689 7.06317 6.06392 6.98873C5.64774 6.88892 5.22649 6.85339 4.80016 6.87369C4.53963 6.88554 4.28078 6.92275 4.03378 7.02088C3.93059 7.06148 3.83416 7.11054 3.75633 7.19175C3.64806 7.30171 3.62268 7.42352 3.68697 7.56055C3.70727 7.60623 3.73603 7.65022 3.76479 7.69082C3.79355 7.73142 3.82739 7.76695 3.86968 7.8194C3.69881 7.81263 3.54655 7.78387 3.39599 7.75003C2.96627 7.6536 2.58393 7.47089 2.29295 7.12746C2.25742 7.08517 2.21851 7.04287 2.19482 6.99212C2.21174 6.95659 2.24219 6.93629 2.27772 6.92445C2.29295 6.92275 2.30987 6.92106 2.31156 6.90076L2.30817 6.90245C2.32509 6.90415 2.3437 6.90753 2.33863 6.88046C2.34032 6.88215 2.34201 6.88384 2.34201 6.88554C2.34032 6.88384 2.34032 6.88215 2.33863 6.88046C2.36908 6.89907 2.39107 6.87539 2.41645 6.86354C2.54671 6.80264 2.6736 6.73666 2.80556 6.67914C3.28264 6.47274 3.78509 6.35939 4.30278 6.31879C4.51763 6.30187 4.73249 6.29341 4.95073 6.31033C5.15712 6.32725 5.36521 6.34078 5.56992 6.36954C6.08253 6.44567 6.57822 6.58609 7.06545 6.75696C7.0959 6.76711 7.12128 6.79756 7.16526 6.77557C7.10774 6.65207 7.02992 6.54211 6.95379 6.43214C6.90642 6.36109 6.83367 6.30864 6.80322 6.22574C6.90304 6.24774 7.00454 6.26973 7.11789 6.29511C7.0553 6.16653 6.96732 6.06672 6.88104 5.96859C6.8083 5.88739 6.73047 5.81126 6.65435 5.73344C6.67803 5.71821 6.70341 5.72159 6.72878 5.72498C6.85567 5.74189 6.98424 5.75543 7.11112 5.77742C7.66603 5.87724 8.19048 6.05826 8.68109 6.33571C9.31213 6.69436 9.83488 7.17314 10.2494 7.76695C10.6402 8.32693 10.9024 8.94274 11.0242 9.61606C11.1037 10.0627 11.1139 10.5093 11.0479 10.9559C10.9616 11.5447 10.7417 12.0793 10.3898 12.5598C10.3763 12.5801 10.3509 12.5953 10.3712 12.6257H10.3678C10.3509 12.6207 10.3475 12.6274 10.3526 12.6426L10.3543 12.6443C10.3103 12.641 10.2984 12.6697 10.295 12.7052L10.2967 12.7019C10.29 12.7086 10.2832 12.7154 10.2781 12.7222L10.2815 12.7188C10.2747 12.7255 10.2697 12.7323 10.2629 12.7391L10.2646 12.7374C10.2578 12.7442 10.2528 12.7492 10.246 12.756C10.2409 12.7611 10.2358 12.7661 10.2291 12.7712C9.82643 13.1569 9.35611 13.4327 8.83674 13.629C8.20909 13.8641 7.55775 13.9673 6.8895 13.9944C6.07407 14.0265 5.27893 13.9216 4.50579 13.6628C3.73265 13.4039 3.03056 13.0131 2.40122 12.4921C2.35385 12.4532 2.3031 12.416 2.26419 12.3686C2.29971 12.3618 2.32002 12.3923 2.3437 12.4092C2.45197 12.4887 2.56194 12.5665 2.67698 12.6376C3.30801 13.0233 3.98472 13.2601 4.73249 13.2669C4.74602 13.316 4.78663 13.2974 4.81708 13.2974C5.12329 13.3041 5.42612 13.2821 5.72894 13.2331C6.17726 13.1603 6.60698 13.025 7.01639 12.8321C7.5273 12.5902 7.98577 12.2722 8.37996 11.861C8.68278 11.5464 8.92809 11.1945 9.09727 10.7918C9.22584 10.4839 9.29352 10.1625 9.29859 9.82753C9.30028 9.62621 9.27321 9.42997 9.22246 9.2388C9.18017 9.08146 9.1328 8.92243 9.03806 8.77017C9.02622 8.79893 9.01437 8.81585 9.01099 8.83277C8.99069 8.96134 8.94163 9.07808 8.87734 9.19312C8.81644 9.30139 8.73015 9.38936 8.67094 9.49764C8.62865 9.53824 8.58635 9.57884 8.54406 9.61945C8.38842 9.76494 8.22431 9.8969 8.02976 9.98994C8.02468 9.96118 8.03483 9.93581 8.0416 9.90705C8.08051 9.73956 8.13973 9.57377 8.13127 9.39782C8.13634 9.39275 8.14142 9.38767 8.14649 9.3826C8.16848 9.2388 8.1651 9.095 8.14988 8.94781C8.12788 8.72788 8.07375 8.5181 7.97901 8.32016C7.80814 7.9615 7.5476 7.68236 7.2194 7.46412C7.14327 7.41337 7.07729 7.3457 6.97748 7.33893H6.97917C6.97409 7.31863 6.97071 7.31355 6.96056 7.32371Z" fill="#2C3175"/>
<path d="M8.02465 9.9781C8.2192 9.88674 8.38331 9.7531 8.53895 9.6076C8.58125 9.567 8.62354 9.5264 8.66583 9.48579C8.73858 9.72603 8.7758 9.96795 8.75381 10.2217C8.71997 10.6125 8.58463 10.9627 8.37992 11.2909C8.17522 11.6208 7.90961 11.8983 7.61524 12.1503C7.23628 12.4752 6.81334 12.7272 6.35318 12.9184C5.83211 13.1333 5.29412 13.2652 4.72569 13.2585C3.97792 13.2517 3.30121 13.0148 2.67018 12.6291C2.55514 12.5581 2.44517 12.4802 2.3369 12.4007C2.31322 12.3838 2.29291 12.3534 2.25739 12.3601H2.25908C2.23539 12.3077 2.19141 12.2772 2.14065 12.2552C1.56376 11.7477 1.11036 11.1454 0.753397 10.467C0.35583 9.7108 0.120673 8.90382 0.0360844 8.05117C0.0208584 7.89214 0.0174749 7.73142 0.00901599 7.5707C0.0157831 7.54194 0.0157831 7.51318 0.00732422 7.48442C0.00901599 7.46751 0.0107078 7.45228 0.0123995 7.43536C0.0699199 7.55717 0.125749 7.67898 0.183269 7.80079C0.499631 8.46565 0.89889 9.07469 1.43349 9.5873C2.06114 10.1879 2.79368 10.5871 3.65649 10.7191C4.65463 10.8714 5.59019 10.687 6.43946 10.127C6.82687 9.87152 7.14324 9.54839 7.33441 9.11868C7.58817 8.54686 7.50189 8.01395 7.12801 7.51995C7.09587 7.47766 7.06034 7.43705 7.02819 7.39476C7.06711 7.37615 7.08402 7.40999 7.10263 7.42859C7.16184 7.4895 7.22782 7.54025 7.28196 7.60454C7.71675 8.11038 7.8707 8.68728 7.7269 9.34199C7.69645 9.47734 7.64231 9.60591 7.57633 9.75648C7.64231 9.72264 7.68291 9.70065 7.72521 9.68035C7.87239 9.60253 7.9942 9.48749 8.12616 9.38936C8.13462 9.56531 8.0754 9.7311 8.03649 9.89859C8.02973 9.92396 8.01958 9.95103 8.02465 9.9781C8.02296 9.98148 8.02296 9.98318 8.02127 9.98487C8.02127 9.98318 8.02296 9.98148 8.02465 9.9781Z" fill="#141F45"/>
<path d="M9.4457 1.51584C9.76544 1.66302 10.0632 1.84574 10.3508 2.04536C10.7501 2.32112 11.1104 2.64256 11.4369 2.99953C12.0037 3.6221 12.4385 4.32757 12.7345 5.11763C12.968 5.73682 13.1033 6.378 13.1405 7.0378C13.1794 7.70097 13.1219 8.35738 12.9595 9.00364C12.9528 9.03071 12.9578 9.06624 12.9155 9.08485C12.902 8.9495 12.8935 8.81924 12.8766 8.69066C12.7599 7.79064 12.4198 6.98366 11.8531 6.27311C11.5892 5.94322 11.2914 5.64716 10.948 5.40185C10.9412 5.39677 10.9378 5.38831 10.9328 5.38155C11.5469 5.44414 12.1373 5.58118 12.6838 5.88062C12.6635 5.85863 12.6415 5.83664 12.6212 5.81464C12.611 5.79772 12.6127 5.77235 12.5839 5.77235L12.5806 5.77911C12.6026 5.74866 12.5755 5.73344 12.5603 5.71652C12.2997 5.42553 12.0189 5.15823 11.7127 4.91123C11.0867 4.40539 10.3931 4.02305 9.63349 3.76083C9.16994 3.6018 8.69624 3.48676 8.20563 3.45123C8.18363 3.44954 8.16164 3.44277 8.13965 3.4377C8.47462 3.15855 8.77237 2.84896 9.00584 2.47846C9.19701 2.17732 9.33404 1.8525 9.4457 1.51584Z" fill="#288BCB"/>
<path d="M10.368 12.624C10.346 12.5953 10.3714 12.5783 10.3866 12.558C10.7385 12.0776 10.9584 11.5413 11.0447 10.9542C11.1107 10.5076 11.1005 10.0593 11.021 9.61435C10.9009 8.93934 10.6387 8.32522 10.2462 7.76524C9.83169 7.17143 9.30893 6.69266 8.6779 6.334C8.18728 6.05486 7.66114 5.87384 7.10793 5.77571C6.98104 5.75372 6.85247 5.74019 6.72559 5.72327C6.70021 5.71989 6.67483 5.71819 6.65115 5.73173C6.641 5.72834 6.62746 5.72665 6.6207 5.71989C6.42107 5.56086 6.20621 5.42383 5.95752 5.3054C6.2299 5.28848 6.48197 5.28679 6.73235 5.30202C7.42936 5.346 8.09762 5.50334 8.7185 5.82647C10.1125 6.55055 10.977 7.68573 11.2832 9.22863C11.471 10.1743 11.3509 11.0845 10.8789 11.9355C10.7402 12.1875 10.5744 12.421 10.368 12.624Z" fill="#172247"/>
<path d="M6.08095 1.51414C6.20614 1.48708 6.33472 1.48708 6.4616 1.48031C6.50897 1.47693 6.55634 1.48031 6.60371 1.48031C6.60202 1.50738 6.60709 1.53614 6.58172 1.55813C6.50389 1.62242 6.42946 1.69009 6.35333 1.75438C6.03696 2.02168 5.71891 2.28559 5.40424 2.55459C5.11833 2.7982 4.8375 3.0452 4.55159 3.28713C4.27413 3.52228 3.9933 3.75406 3.71754 3.98921C3.47054 4.19899 3.22692 4.41554 2.97823 4.62194C2.93256 4.66085 2.89703 4.72852 2.8209 4.72514C2.82767 4.69807 2.83443 4.671 2.8412 4.64393C2.84797 4.62025 2.86827 4.59487 2.83951 4.57795C2.81921 4.56611 2.79721 4.58134 2.7786 4.59656C2.41826 4.87232 2.1002 5.1853 1.90565 5.60486C1.88704 5.64546 1.86843 5.68437 1.84982 5.72498C1.83628 5.72836 1.81937 5.72667 1.81091 5.73343C1.6688 5.85017 1.52669 5.9669 1.38627 6.08702C1.21033 6.23758 1.03777 6.39154 0.86013 6.54041C0.814452 6.57932 0.770466 6.63854 0.694336 6.61823C0.740014 6.40507 0.75524 6.18345 0.827986 5.97705C0.921034 5.97197 0.96502 5.89415 1.02592 5.8434C1.19679 5.70298 1.36428 5.55918 1.53346 5.41538C1.70263 5.27158 1.86843 5.12609 2.03761 4.98398C2.24231 4.80972 2.44871 4.63886 2.65341 4.4646C2.82428 4.31911 2.99177 4.17023 3.16264 4.02643C3.40964 3.81665 3.66002 3.60856 3.90702 3.39709C4.11003 3.22453 4.31135 3.05028 4.51267 2.87772C4.75629 2.67132 5.0016 2.46661 5.24521 2.26022C5.46345 2.07581 5.68507 1.89479 5.89655 1.70362C5.95914 1.64441 6.0505 1.60719 6.08095 1.51414Z" fill="#5A9AD3"/>
<path d="M9.44602 1.51583C9.33436 1.85249 9.19733 2.17732 9.00785 2.47845C8.77438 2.84895 8.47494 3.15855 8.14166 3.43769C7.98263 3.53243 7.83883 3.64916 7.68149 3.74559C7.40235 3.91477 7.11137 4.05688 6.81023 4.18207C6.77978 4.19391 6.74933 4.21083 6.70703 4.19391C6.94557 3.97229 7.09614 3.69822 7.1858 3.39032C7.19595 3.35648 7.21964 3.34464 7.25009 3.33111C7.99955 3.03505 8.57644 2.52413 9.04676 1.88295C9.05352 1.87449 9.05352 1.86265 9.05691 1.85249C9.06029 1.84742 9.06368 1.84404 9.06706 1.83896C9.06029 1.83896 9.05352 1.83896 9.04676 1.83896C8.90296 1.88125 8.75916 1.92355 8.59675 1.97092C9.10935 1.39064 9.45448 0.739306 9.65241 0C9.64903 0.20978 9.63888 0.40941 9.61689 0.607348C9.58643 0.896641 9.53061 1.17917 9.45448 1.45831C9.45109 1.47692 9.4494 1.49722 9.44602 1.51583Z" fill="#172247"/>
<path d="M6.80151 6.22235C6.83196 6.30525 6.90471 6.3577 6.95208 6.42875C7.02821 6.54041 7.10603 6.64868 7.16355 6.77218C7.11956 6.79417 7.09419 6.76372 7.06374 6.75357C6.5765 6.5827 6.08081 6.44229 5.56821 6.36616C5.3635 6.3357 5.1571 6.32217 4.94902 6.30694C4.73247 6.29003 4.51592 6.29848 4.30107 6.3154C3.78338 6.35431 3.28262 6.46766 2.80384 6.67575C2.67189 6.73327 2.545 6.79925 2.41474 6.86015C2.39105 6.872 2.36906 6.89568 2.33691 6.87707C2.69895 6.61654 3.09652 6.42537 3.51777 6.28157C4.14373 6.07009 4.78661 5.99904 5.44471 6.02611C5.87273 6.04303 6.29398 6.10224 6.71185 6.19698C6.7423 6.20205 6.77106 6.2139 6.80151 6.22235Z" fill="#172247"/>
<path d="M2.81918 4.72343C2.89531 4.72682 2.92914 4.65915 2.97651 4.62023C3.2269 4.41384 3.46882 4.19729 3.71582 3.98751C3.99327 3.75235 4.2741 3.52058 4.54986 3.28542C4.83577 3.0435 5.11661 2.79481 5.40252 2.55288C5.71719 2.28558 6.03524 2.01997 6.35161 1.75267C6.42943 1.68839 6.50387 1.62072 6.58 1.55643C6.60537 1.53443 6.6003 1.50737 6.60199 1.47861C6.69842 1.46676 6.79316 1.50398 6.88959 1.49552C6.85576 1.59026 6.76778 1.63087 6.70011 1.69177C6.53263 1.84065 6.36176 1.98614 6.19089 2.12994C5.98449 2.30588 5.7764 2.48014 5.56831 2.65439C5.39744 2.79819 5.22319 2.93861 5.0574 3.08918C4.9948 3.1467 4.90175 3.18222 4.87807 3.27866C4.61584 3.38185 4.42129 3.55949 4.29441 3.81157C4.25211 3.80649 4.22504 3.83694 4.19967 3.85894C4.08632 3.95029 3.97635 4.04503 3.86639 4.13977C3.58217 4.38339 3.29964 4.63038 3.01204 4.87062C2.95114 4.92137 2.90207 4.99242 2.81579 5.00934C2.78196 4.9146 2.7938 4.81986 2.81918 4.72343Z" fill="#4F96D1"/>
<path d="M4.88135 3.28036C4.90503 3.18392 4.99639 3.1484 5.06068 3.09088C5.22647 2.94031 5.40072 2.79989 5.57159 2.65609C5.77968 2.48184 5.98777 2.30758 6.19417 2.13164C6.36504 1.98615 6.5359 1.84065 6.70339 1.69347C6.77106 1.63257 6.85903 1.59196 6.89287 1.49722C7.0722 1.49384 7.24983 1.51414 7.42578 1.54629C7.45454 1.55136 7.4833 1.55136 7.49176 1.5852C7.50191 1.62242 7.47146 1.63257 7.45116 1.64948C7.32596 1.75607 7.20246 1.86434 7.07727 1.97261C6.99607 1.85588 6.99607 1.85588 6.92332 1.98107C6.77783 2.23653 6.55959 2.41924 6.32274 2.58334C5.90656 2.87095 5.44809 3.07227 4.97609 3.24821C4.94564 3.26005 4.91349 3.2702 4.88135 3.28036Z" fill="#4092CF"/>
<path d="M12.6211 5.81463C12.6414 5.83663 12.6634 5.85862 12.6837 5.88061C12.1373 5.58117 11.5452 5.44413 10.9327 5.38154C10.772 5.29018 10.6248 5.17852 10.4641 5.08717C9.99042 4.81818 9.48796 4.63208 8.95336 4.53396C8.93644 4.53057 8.92121 4.5255 8.9043 4.52042C8.92798 4.48828 8.96689 4.51704 8.99396 4.50012C9.72312 4.55426 10.41 4.75896 11.0732 5.1007C11.0342 4.99412 10.9716 4.91799 10.9277 4.8334C10.9091 4.79787 10.8718 4.77081 10.8803 4.72513L10.8786 4.72682C10.9649 4.74543 11.0359 4.79618 11.1121 4.83509C11.6111 5.09224 12.0764 5.40184 12.5162 5.74865C12.5348 5.76388 12.5484 5.78926 12.5788 5.78249L12.5822 5.77572C12.567 5.81125 12.6059 5.80279 12.6211 5.81463Z" fill="#1C264A"/>
<path d="M2.81738 5.01104C2.90366 4.99412 2.95272 4.92307 3.01363 4.87231C3.30123 4.63208 3.58376 4.38508 3.86798 4.14147C3.97794 4.04673 4.0896 3.95199 4.20126 3.86063C4.22832 3.83864 4.25539 3.80988 4.29599 3.81326C4.25201 3.95875 4.22832 4.10425 4.28077 4.25143C4.36028 4.47475 4.5413 4.56949 4.76123 4.61178C4.58529 4.6693 4.40934 4.65577 4.27739 4.56103C4.21479 4.51704 4.18095 4.53396 4.13866 4.57794C3.98132 4.74374 3.81046 4.89261 3.6159 5.01104C3.48225 5.09224 3.34353 5.15822 3.18957 5.18698C3.06946 5.20898 2.95272 5.20728 2.86137 5.10747C2.83768 5.0804 2.81738 5.04995 2.81738 5.01104Z" fill="#4092CF"/>
<path d="M0.690974 6.61654C0.768796 6.63684 0.81109 6.57763 0.856768 6.53872C1.0344 6.39153 1.20697 6.23589 1.38291 6.08532C1.52333 5.96521 1.66544 5.84847 1.80755 5.73174C1.8177 5.72328 1.83461 5.72497 1.84646 5.72328C1.74833 5.97874 1.73142 6.24604 1.7348 6.51673C1.67051 6.50996 1.64175 6.56579 1.60284 6.59793C1.39644 6.7688 1.19343 6.94474 0.990418 7.12069C0.904138 7.19513 0.817857 7.27126 0.729885 7.3457C0.711275 7.36261 0.689282 7.38122 0.662214 7.36938C0.633454 7.35754 0.638529 7.32709 0.638529 7.30171C0.643604 7.09531 0.657139 6.88892 0.685899 6.68421C0.690974 6.66053 0.690974 6.63853 0.690974 6.61654Z" fill="#4092CF"/>
<path d="M5.98108 3.54258C6.13841 3.46306 6.30421 3.40216 6.44462 3.29389C6.47338 3.27189 6.50214 3.2499 6.54444 3.21606C6.43278 3.6407 6.23823 3.98413 5.84404 4.18207C5.56659 4.32249 5.26715 4.35801 4.96094 4.34786C5.12166 4.30049 5.28745 4.26327 5.43802 4.18376C5.70701 4.04334 5.90326 3.84202 5.98108 3.54258Z" fill="#1C264A"/>
<path d="M5.9813 3.54257C5.90179 3.84371 5.70723 4.04334 5.43824 4.18376C5.28767 4.26158 5.12357 4.2988 4.96116 4.34786C4.92225 4.22097 4.96623 4.1127 5.04575 4.01627C5.12357 3.92153 5.22338 3.85386 5.33335 3.80141C5.54313 3.69822 5.76306 3.62039 5.9813 3.54257Z" fill="#288BCB"/>
<path d="M2.90563 5.72328C2.92593 5.78588 2.86841 5.82648 2.86503 5.88062C2.84304 5.78419 2.7889 5.74189 2.69416 5.75881C2.58589 5.77742 2.49622 5.82987 2.4184 5.906C2.38964 5.93476 2.36596 5.96859 2.31689 5.99058C2.32028 5.95337 2.32874 5.93137 2.34565 5.91107C2.37442 5.89754 2.37949 5.86878 2.39472 5.84509C2.46577 5.73513 2.54867 5.64039 2.67048 5.58456C2.80074 5.52704 2.86841 5.56595 2.89041 5.70467C2.89041 5.71313 2.90056 5.71821 2.90563 5.72328Z" fill="#308CC9"/>
<path d="M2.90532 5.72327C2.90024 5.71651 2.89178 5.71143 2.89009 5.70467C2.86979 5.56594 2.80043 5.52703 2.67016 5.58455C2.54835 5.63869 2.46545 5.73512 2.3944 5.84508C2.37917 5.86877 2.3741 5.89753 2.34534 5.91106C2.34196 5.90768 2.3335 5.9026 2.3335 5.90091C2.37748 5.72327 2.53313 5.49658 2.71922 5.43567C2.79028 5.41199 2.85795 5.41537 2.9087 5.48135C2.95269 5.53887 2.9493 5.6556 2.90532 5.72327Z" fill="#1C264A"/>
<path d="M8.99432 4.49844C8.96725 4.51536 8.92834 4.4866 8.90466 4.51874C8.82684 4.51705 8.75071 4.50351 8.67627 4.47983C8.78116 4.49505 8.88943 4.47306 8.99432 4.49844Z" fill="#595B77"/>
<path d="M2.14258 12.2569C2.19333 12.2789 2.23732 12.3094 2.261 12.3618C2.20856 12.3432 2.17811 12.2992 2.14258 12.2569Z" fill="#2C3175"/>
<path d="M10.29 12.7035C10.2934 12.668 10.3053 12.6393 10.3493 12.6426C10.3357 12.668 10.3171 12.69 10.29 12.7035Z" fill="#172247"/>
<path d="M0.00741373 7.48442C0.0158726 7.51318 0.0158726 7.54194 0.00910551 7.5707C-0.00273692 7.54194 -0.00273692 7.51318 0.00741373 7.48442Z" fill="#268ACB"/>
<path d="M2.33856 6.87538C2.34194 6.90245 2.32502 6.90076 2.30811 6.89737C2.31656 6.89061 2.32841 6.88384 2.33856 6.87538Z" fill="#172247"/>
<path d="M2.30971 6.89568C2.30802 6.91767 2.2928 6.91936 2.27588 6.91936C2.28265 6.90583 2.29449 6.90075 2.30971 6.89568Z" fill="#172247"/>
<path d="M10.8805 4.72175C10.8771 4.72175 10.872 4.72175 10.8687 4.72344C10.8703 4.72005 10.872 4.71667 10.872 4.71329C10.8737 4.71667 10.8771 4.72175 10.8788 4.72513C10.8788 4.72344 10.8805 4.72175 10.8805 4.72175Z" fill="#1C264A"/>
<path d="M10.3476 12.6393C10.3425 12.624 10.3476 12.6173 10.3628 12.6223C10.3594 12.6291 10.3527 12.6342 10.3476 12.6393Z" fill="#172247"/>
<path d="M10.2729 12.7205C10.2797 12.7137 10.2865 12.7069 10.2916 12.7002C10.2848 12.7069 10.278 12.7137 10.2729 12.7205Z" fill="#172247"/>
<path d="M10.2563 12.7357C10.2631 12.7289 10.2682 12.7222 10.275 12.7154C10.2682 12.7239 10.2631 12.7306 10.2563 12.7357Z" fill="#172247"/>
<path d="M10.2407 12.7526C10.2475 12.7458 10.2526 12.7408 10.2593 12.734C10.2526 12.7408 10.2458 12.7458 10.2407 12.7526Z" fill="#172247"/>
<path d="M10.2241 12.7661C10.2292 12.7611 10.2343 12.756 10.241 12.7509C10.2343 12.7577 10.2292 12.7628 10.2241 12.7661Z" fill="#172247"/>
<path d="M6.08083 1.51415C6.05038 1.60719 5.95902 1.64441 5.89473 1.70193C5.68157 1.8931 5.46164 2.07412 5.2434 2.25853C4.99978 2.46492 4.75448 2.66963 4.51086 2.87603C4.30785 3.04859 4.10653 3.22284 3.9052 3.3954C3.6582 3.60518 3.40782 3.81327 3.16082 4.02474C2.98995 4.17023 2.82247 4.31742 2.6516 4.46291C2.44689 4.63716 2.2405 4.80973 2.03579 4.98229C1.86661 5.12609 1.69913 5.26989 1.53164 5.41369C1.36246 5.55749 1.19498 5.70129 1.02411 5.84171C0.963206 5.89246 0.91922 5.97028 0.826172 5.97536C0.866774 5.74697 0.946288 5.53042 1.03088 5.31726C1.05964 5.31726 1.08501 5.31895 1.11039 5.29696C1.26265 5.165 1.4166 5.03473 1.57055 4.90447C1.73635 4.76236 1.90214 4.62025 2.06794 4.47814C2.27941 4.29881 2.49088 4.12117 2.70235 3.94184C2.86815 3.79974 3.03394 3.65763 3.19973 3.51552C3.37229 3.36833 3.54655 3.22284 3.71911 3.07735C3.8849 2.93524 4.0507 2.79313 4.21818 2.65271C4.38398 2.51229 4.55146 2.37188 4.71895 2.23146C4.89658 2.08089 5.07591 1.9354 5.24847 1.77806C5.30092 1.73069 5.39058 1.71039 5.39058 1.61565C5.52931 1.55982 5.67819 1.55475 5.82537 1.53614C5.90658 1.52091 5.99286 1.5023 6.08083 1.51415Z" fill="#649ED5"/>
<path d="M5.38705 1.61226C5.38705 1.707 5.29739 1.7273 5.24494 1.77467C5.07238 1.93031 4.89305 2.0775 4.71542 2.22807C4.54793 2.36848 4.38044 2.5089 4.21465 2.64932C4.04886 2.78974 3.88306 2.93354 3.71558 3.07395C3.54301 3.22114 3.36876 3.36663 3.1962 3.51212C3.03041 3.65423 2.86461 3.79634 2.69882 3.93845C2.48735 4.11778 2.27587 4.29542 2.0644 4.47474C1.89861 4.61685 1.73281 4.75896 1.56702 4.90107C1.41307 5.03134 1.25912 5.1616 1.10686 5.29356C1.08317 5.31386 1.0561 5.31386 1.02734 5.31386C1.12547 5.03811 1.25235 4.77419 1.39953 4.52042C1.4486 4.52211 1.48243 4.49335 1.51627 4.4629C1.64315 4.35294 1.77173 4.24466 1.89861 4.1347C2.06779 3.99259 2.23696 3.85048 2.40445 3.70668C2.57363 3.56288 2.73942 3.41908 2.9086 3.27527C3.12007 3.09595 3.33154 2.91662 3.54301 2.73898C3.71388 2.59349 3.88475 2.44969 4.05562 2.3042C4.21634 2.16885 4.37537 2.03351 4.53609 1.89648C4.55131 1.88294 4.56485 1.86772 4.53947 1.84911C4.69681 1.7679 4.87106 1.7273 5.04024 1.68331C5.15697 1.65625 5.26863 1.61395 5.38705 1.61226Z" fill="#71A4D8"/>
<path d="M4.5413 1.8508C4.56668 1.86941 4.55315 1.88464 4.53792 1.89817C4.37889 2.03351 4.21817 2.17055 4.05746 2.30589C3.88659 2.45138 3.71572 2.59518 3.54485 2.74067C3.33338 2.92 3.1219 3.09764 2.91043 3.27697C2.74125 3.42077 2.57546 3.56457 2.40628 3.70837C2.2371 3.85217 2.06793 3.99259 1.90044 4.13639C1.77187 4.24466 1.64498 4.35294 1.5181 4.46459C1.48257 4.49505 1.45043 4.52381 1.40137 4.52211C1.56885 4.20914 1.77356 3.92323 1.99518 3.64747C2.16436 3.43599 2.35553 3.24651 2.55177 3.06042C2.8766 2.75082 3.24033 2.49367 3.62605 2.27036C3.9035 2.10964 4.19111 1.97261 4.49393 1.86264C4.50916 1.85418 4.52608 1.85418 4.5413 1.8508Z" fill="#7CA9DA"/>
<path d="M8.12622 9.38766C7.99257 9.48578 7.87245 9.60082 7.72527 9.67864C7.68467 9.70064 7.64237 9.72094 7.57639 9.75477C7.64237 9.6042 7.6982 9.47732 7.72696 9.34029C7.87076 8.68557 7.71681 8.11037 7.28202 7.60283C7.2262 7.53855 7.16022 7.48779 7.1027 7.42689C7.08409 7.40659 7.06548 7.37444 7.02826 7.39305C7.00288 7.37614 6.98258 7.35753 6.97412 7.32877C7.07224 7.33553 7.13991 7.4032 7.21604 7.45396C7.54425 7.6722 7.80478 7.95303 7.97565 8.31C8.07039 8.50793 8.12453 8.71771 8.14652 8.93764C8.16175 9.08314 8.16513 9.22694 8.14314 9.37243C8.13637 9.37751 8.1313 9.38258 8.12622 9.38766Z" fill="#262A65"/>
<path d="M6.96045 7.3237C6.9706 7.31524 6.97398 7.32031 6.97398 7.33047C6.96891 7.33047 6.96383 7.32877 6.96045 7.3237Z" fill="#262A65"/>
<path d="M4.729 13.2601C5.29575 13.2686 5.83543 13.1349 6.35649 12.9201C6.81666 12.7306 7.2396 12.4768 7.61856 12.152C7.91293 11.8999 8.17853 11.6242 8.38324 11.2926C8.58625 10.9644 8.72329 10.6142 8.75712 10.2234C8.77912 9.96963 8.74021 9.72771 8.66915 9.48747C8.72667 9.3792 8.81464 9.29123 8.87555 9.18295C8.93983 9.0696 8.9889 8.95287 9.0092 8.82261C9.01258 8.80569 9.02273 8.78877 9.03626 8.76001C9.12931 8.91227 9.17837 9.0713 9.22067 9.22863C9.27142 9.4198 9.29849 9.61774 9.2968 9.81737C9.29342 10.1523 9.22574 10.4721 9.09548 10.7817C8.9263 11.186 8.68268 11.5362 8.37816 11.8509C7.98398 12.2603 7.52551 12.58 7.01459 12.822C6.60518 13.0165 6.17547 13.1502 5.72715 13.2229C5.42432 13.272 5.1215 13.294 4.81528 13.2872C4.78314 13.2889 4.74254 13.3075 4.729 13.2601Z" fill="#262A65"/>
<path d="M8.02487 9.97809C8.02318 9.97978 8.02148 9.98316 8.02148 9.98486C8.02148 9.98316 8.02318 9.98147 8.02487 9.97809C8.02487 9.97978 8.02487 9.97809 8.02487 9.97809Z" fill="#2C3175"/>
<path d="M12.6213 5.81463C12.6077 5.80279 12.5688 5.81125 12.584 5.77234C12.6111 5.77234 12.6111 5.79941 12.6213 5.81463Z" fill="#FEFEFF"/>
<path d="M9.04639 1.83896C9.05315 1.83896 9.05992 1.83896 9.06669 1.83896C9.0633 1.84403 9.05992 1.84742 9.05654 1.85249C9.05315 1.84911 9.04977 1.84403 9.04639 1.83896Z" fill="#FEFEFF"/>
</svg>
