<svg width="36" height="36" viewBox="0 0 36 36" fill="none" xmlns="http://www.w3.org/2000/svg">
<rect width="36" height="36" rx="12" fill="#1A1A26"/>
<mask id="mask0" mask-type="alpha" maskUnits="userSpaceOnUse" x="0" y="0" width="36" height="36">
<rect width="36" height="36" rx="12" fill="#FAF2F2"/>
</mask>
<g mask="url(#mask0)">
<circle cx="4.5" cy="38.5" r="8.5" fill="#41424E"/>
<circle cx="8" cy="1" r="7" fill="#2A2A36"/>
<circle cx="40.5" cy="21.5" r="11.5" fill="#262631"/>
</g>
<path d="M11.1999 9.89998C11.3999 9.89998 11.5999 9.89998 11.6999 9.99998C12.0999 10.2 12.2999 10.6 12.4999 10.9C12.7999 11.4 12.9999 12 13.0999 12.6C13.1999 12.8 13.3999 13 13.5999 12.9C13.7999 12.9 13.9999 12.7 13.9999 12.4V12.3C13.6999 11.7 13.4999 11 13.1999 10.4C12.9999 9.89998 12.5999 9.49998 12.0999 9.19998C11.7999 8.99998 11.3999 8.89998 10.9999 8.99998C10.7999 9.09998 10.5999 9.29998 10.6999 9.59998C10.7999 9.79998 10.9999 9.99998 11.1999 9.89998Z" fill="#798DFF"/>
<path d="M13.9 11.1C14.1 11.2 14.3 11.1 14.4 10.8C14.5 10.7 14.5 10.6 14.6 10.5C14.8 10.2 15.1 9.99999 15.4 9.89999C15.6 9.89999 15.7 9.69999 15.7 9.49999C15.7 9.39999 15.7 9.39999 15.7 9.29999C15.6 9.09999 15.4 8.99999 15.1 9.09999C14.4 9.29999 14 9.89999 13.7 10.6C13.6 10.8 13.7 11.1 13.9 11.1Z" fill="#798DFF"/>
<path d="M13.3 9.9C13.5 9.9 13.7 9.7 13.7 9.5C13.7 9.2 13.7 8.8 13.7 8.5C13.8 8.2 13.6 8 13.3 8C13.1 8 12.9 8.2 12.9 8.5C12.9 8.7 12.9 8.8 12.9 9C12.9 9.2 12.9 9.3 12.9 9.5C12.9 9.7 13.1 9.9 13.3 9.9Z" fill="#798DFF"/>
<path d="M16.9 10.9C17.2 11 17.5 10.9 17.5 10.5C17.5 10.3 17.4 10.1 17.1 10C16.8 10 16.6 10.1 16.5 10.4C16.5 10.6 16.6 10.8 16.9 10.9Z" fill="#798DFF"/>
<path d="M27.3 13.1C27.4 12.7 27.2 12.5 26.8 12.5C26.1 12.5 25.5 12.8 25 13.2C24.9 13.3 24.9 13.3 24.8 13.2C24.3 12.7 23.7 12.5 23 12.5C22.7 12.5 22.5 12.7 22.5 13.1C22.8 14.1 23.2 15 23.9 15.8C24 15.8 24 15.9 24 16C24.1 16.4 24.1 16.8 24 17.2C23.9 17.5 23.8 17.9 23.6 18.1C23.3 18.4 23 18.4 22.6 18.4C22.1 18.4 21.6 18.3 21.1 18.1C20.3 17.8 19.5 17.3 18.8 16.9C18.1 16.5 17.3 16 16.4 15.6C15.8 15.3 15.2 15.1 14.5 15C14.5 15 14.4 15 14.4 14.9C14.5 14.2 14.6 13.5 14.9 12.8C15.1 12.1 15.5 11.5 16.1 11.1C16.3 11 16.3 10.7 16.2 10.5C16.1 10.2 15.9 10.2 15.6 10.4C15 10.8 14.6 11.3 14.4 11.9C13.9 13 13.7 14.2 13.5 15.4C13.5 15.5 13.5 15.7 13.5 15.8V15.7C13.4 14.9 13.3 14.1 13.1 13.3C12.9 12.5 12.6 11.8 12.1 11.1C11.8 10.6 11.3 10.2 10.7 10C10.4 10 10.1 10 9.8 10.1C9.5 10.2 9.4 10.5 9.5 10.7C9.7 11 9.9 11 10.1 10.9C10.2 10.9 10.3 10.8 10.4 10.9C10.8 11 11.1 11.3 11.4 11.6C11.8 12 12 12.6 12.2 13.1C12.4 13.6 12.5 14.2 12.5 14.7C12.5 14.8 12.5 14.8 12.4 14.8C12.3 14.8 12.2 14.8 12.1 14.8C11.3 15.1 10.5 15.5 10 16.2C9 17.3 8.8 18.7 9.1 20.1C9.3 21 9.8 21.6 10.5 22.1C10.6 22.1 10.6 22.2 10.6 22.3C10.6 22.6 10.8 22.9 11 23.2C11.4 23.7 11.8 24 12.4 24.3C13.7 24.9 15 25.2 16.4 25.3C17 25.3 17.6 25.3 18.1 25.3C18.2 25.3 18.2 25.3 18.3 25.4C18.7 25.8 19.2 26.1 19.7 26.3C19.8 26.3 19.9 26.4 20.1 26.4C20.5 26.4 20.8 26.1 20.8 25.7C20.8 25.5 20.7 25.3 20.7 25C20.7 24.9 20.7 24.9 20.8 24.9C21.5 24.7 22.1 24.5 22.7 24.2C23.6 23.8 24.3 23.2 25 22.4C26 21.2 26.4 19.9 26.4 18.4C26.4 17.5 26.3 16.7 26.1 15.9C26.1 15.8 26.1 15.8 26.1 15.7C26.7 14.8 27 14 27.3 13.1ZM24.2 21.8C23.3 22.8 22.1 23.4 20.8 23.8C20.6 23.9 20.6 23.9 20.5 23.6C20.5 23.3 20.4 23.1 20.4 22.8C20.4 22.7 20.4 22.7 20.5 22.7C21 22.6 21.5 22.5 22 22.3C23 22 24 21.5 24.8 20.8C24.9 20.7 25 20.6 25.1 20.6C24.8 21.1 24.5 21.5 24.2 21.8ZM25.8 14.5C25.7 14.7 25.5 14.9 25.3 15.1C25.2 15.2 25.1 15.4 25.2 15.6C25.4 16.2 25.5 16.8 25.5 17.4C25.5 18.5 25 19.5 24.2 20.2C23.5 20.8 22.6 21.2 21.7 21.5C21.1 21.7 20.5 21.8 19.8 21.9C19.5 21.9 19.4 22.2 19.4 22.4C19.6 23.3 19.7 24.2 19.9 25.1V25.2H19.8C19.1 24.9 18.6 24.4 18.1 23.7C17.8 23.3 17.6 22.9 17.5 22.5C17.4 22.3 17.3 22.2 17 22.2C16.9 22.2 16.8 22.2 16.7 22.2C16.5 22.2 16.3 22.4 16.3 22.7C16.3 22.9 16.5 23.1 16.7 23.1H16.8C17 23.6 17.2 24 17.4 24.3C17.2 24.3 17 24.3 16.8 24.3C15.8 24.3 14.8 24.1 13.8 23.9C13.2 23.7 12.5 23.5 12 23.1C11.9 23.1 11.9 23 11.8 22.9L11.7 22.8C11.8 22.8 11.8 22.8 11.9 22.8C12.6 23 13.4 23.2 14.2 23.2C14.7 23.2 15.2 23.2 15.6 23.2C15.9 23.2 16 23 16 22.7C16 22.4 15.8 22.3 15.6 22.3C15.1 22.3 14.6 22.3 14.2 22.3C13.2 22.2 12.2 22 11.3 21.6C10.6 21.2 10.1 20.7 9.9 19.9C9.7 18.8 9.8 17.8 10.5 16.9C11 16.3 11.6 16 12.3 15.8C12.4 15.8 12.5 15.8 12.6 15.7H12.7C12.7 15.7 12.7 15.7 12.7 15.8C12.4 16 12.3 16.2 12.4 16.4C12.5 16.5 12.6 16.6 12.8 16.6C13.3 16.6 13.7 16.6 14.2 16.6C14.4 16.6 14.5 16.5 14.6 16.4C14.7 16.2 14.7 16.1 14.5 15.9H14.6C15.4 16.1 16.2 16.5 17 16.9C17.9 17.4 18.8 17.9 19.7 18.4C20.4 18.8 21.1 19.1 21.9 19.3C22.5 19.4 23.2 19.4 23.8 19.1C24.4 18.8 24.7 18.3 24.8 17.7C25 17 24.9 16.3 24.7 15.5C24.7 15.4 24.6 15.3 24.5 15.3C24 14.8 23.7 14.3 23.5 13.6C23.9 13.7 24.2 13.9 24.5 14.3C24.7 14.6 25 14.6 25.2 14.3C25.5 14 25.8 13.8 26.2 13.6C26.1 13.9 26 14.2 25.8 14.5Z" fill="#798DFF"/>
<path d="M15.7 19.6C15.2 19.6 14.8 19.9 14.7 20.4C14.6 20.6 14.7 20.9 14.7 21.1C14.7 21.3 14.8 21.5 14.9 21.7C15.3 22.2 16 22.3 16.4 21.8C16.6 21.5 16.7 21.2 16.7 20.9C16.7 20.7 16.7 20.6 16.7 20.4C16.4 20 16.1 19.6 15.7 19.6ZM15.7 21.1C15.7 21.2 15.6 21.2 15.6 21.2C15.5 21.2 15.5 21.2 15.5 21.1C15.5 20.9 15.5 20.8 15.5 20.6C15.5 20.5 15.6 20.5 15.6 20.5C15.7 20.5 15.7 20.6 15.7 20.6C15.7 20.7 15.7 20.8 15.7 20.8C15.8 21 15.8 21.1 15.7 21.1Z" fill="#798DFF"/>
</svg>
